<?xml version="1.0" encoding="UTF-8"?>
<svg width="15px" height="15px" viewBox="0 0 15 15" version="1.1" xmlns="http://www.w3.org/2000/svg" xmlns:xlink="http://www.w3.org/1999/xlink">
    <!-- Generator: Sketch 48.2 (47327) - http://www.bohemiancoding.com/sketch -->
    <title>calendar</title>
    <desc>Created with Sketch.</desc>
    <defs></defs>
    <g id="Symbols" stroke="none" stroke-width="1" fill="none" fill-rule="evenodd">
        <path d="M14.1659671,4.58347736 L0.833292183,4.58347736 L0.833292183,3.33316873 C0.833292183,2.64357316 1.39400523,2.08286011 2.08360081,2.08286011 L3.33390944,2.08286011 L3.33390944,2.91615229 L4.16646092,2.91615229 L4.16646092,2.08360081 L10.8327984,2.08360081 L10.8327984,2.91689299 L11.6660906,2.91689299 L11.6660906,2.08360081 L12.9163992,2.08360081 C13.6052541,2.08360081 14.1659671,2.64357316 14.1659671,3.33316873 L14.1659671,4.58347736 Z M14.1659671,12.9163992 C14.1659671,13.6052541 13.6052541,14.1659671 12.9163992,14.1659671 L2.08360081,14.1659671 C1.39400523,14.1659671 0.833292183,13.6052541 0.833292183,12.9163992 L0.833292183,5.41676954 L14.1659671,5.41676954 L14.1659671,12.9163992 Z M11.6660906,1.25030863 L11.6660906,0 L10.8327984,0 L10.8327984,1.25030863 L4.16646092,1.25030863 L4.16646092,0 L3.33316873,0 L3.33316873,1.25030863 L2.08360081,1.25030863 C0.934768653,1.25030863 0,2.18507728 0,3.33390944 L0,12.9171399 C0,14.0659721 0.934768653,15 2.08360081,15 L12.9163992,15 C14.0652313,15 15,14.0659721 15,12.9171399 L15,5.41676954 L15,4.58347736 L15,3.33316873 C14.9992593,2.18433658 14.0644906,1.25030863 12.9163992,1.25030863 L11.6660906,1.25030863 Z" id="calendar" fill="#BBBBBB"></path>
    </g>
</svg>